<svg width="300" height="300" viewBox="0 0 300 300" fill="none" xmlns="http://www.w3.org/2000/svg">
    <path d="M0 150C0 67.1573 67.1573 0 150 0V0C232.843 0 300 67.1573 300 150V150C300 232.843 232.843 300 150 300V300C67.1573 300 0 232.843 0 150V150Z" fill="white"/>
    <path fill-rule="evenodd" clip-rule="evenodd" d="M121.239 79.19C117.145 80.4197 112.88 81.9864 111.761 82.6722C108.605 84.6077 108.073 84.1596 110.082 81.258C111.095 79.7942 109.129 81.9308 105.713 86.0053C94.6383 99.2163 88.9518 116.358 88.9518 136.535C88.9518 158.702 94.7219 174.572 108.523 190.364C118.258 201.501 126.244 206.83 138.91 210.64C145.349 212.577 150.861 212.8 192.305 212.8C236.245 212.8 238.795 212.682 244.129 210.396C253.88 206.215 262.903 194.589 264.742 183.831C265.075 181.88 265.087 180.976 264.769 181.822C264.419 182.754 263.37 181.459 262.106 178.533C259.028 171.405 251.717 163.402 245.016 159.825C240.431 157.376 237.155 156.581 230.341 156.258C219.302 155.736 212.094 158.537 204.589 166.268C201.724 169.22 199.372 170.921 199.364 170.048C199.351 168.726 199.201 168.725 198.475 170.039C195.975 174.558 195.494 154.39 197.909 146.271C198.803 143.264 201.441 138.324 203.77 135.293C207.732 130.135 207.929 129.547 206.819 126.176C204.241 118.352 198.478 109.295 190.447 100.447C176.242 84.7969 158.431 76.753 138.286 76.889C132.358 76.9292 125.837 77.8101 121.239 79.19ZM63.5751 143.611C55.0907 145.726 45.4009 151.517 39.1561 158.206L34 163.73L34.5769 171.624C35.7287 187.392 43.6764 200.365 56.71 207.749L64.5834 212.209L87.0745 212.604L109.566 213L99.4724 201.371C91.6537 192.365 88.4234 187.611 85.1405 180.284C80.2858 169.451 77.0978 158.361 76.0348 148.612C75.1875 140.85 74.9811 140.767 63.5751 143.611Z" fill="#2AB7EE"/>
    <path fill-rule="evenodd" clip-rule="evenodd" d="M141.953 60.7102C118.373 65.3121 97.5559 82.9408 87.7011 106.653L85.0331 113.074L78.057 113.229C60.312 113.625 44.3277 124.659 36.4318 141.966C23.0842 171.227 35.1714 204.744 63.5352 217.118L69.23 219.602L148.483 219.92C205.32 220.147 229.335 219.901 233.392 219.048C245.266 216.553 256.91 207.502 262.046 196.778C263.534 193.672 265.058 191.13 265.434 191.127C265.809 191.126 265.869 190.426 265.569 189.572C265.269 188.718 265.482 188.019 266.044 188.019C266.605 188.019 266.836 187.367 266.555 186.57C266.275 185.774 266.462 184.841 266.97 184.498C267.479 184.155 267.684 182.995 267.427 181.922C267.17 180.847 267.423 179.655 267.991 179.273C269.288 178.398 269.356 167.655 268.069 166.788C267.545 166.435 267.378 165.009 267.698 163.621C268.075 161.982 267.874 161.095 267.125 161.095C266.49 161.095 266.218 160.397 266.519 159.542C266.818 158.688 266.605 157.989 266.044 157.989C265.482 157.989 265.269 157.29 265.569 156.435C265.869 155.581 265.784 154.882 265.379 154.882C264.973 154.882 263.845 152.901 262.871 150.481C260.46 144.489 250.715 134.122 244.285 130.708C241.381 129.166 236.255 127.36 232.896 126.694C226.424 125.412 225.087 124.414 225.922 121.486C226.213 120.469 225.951 119.674 225.324 119.674C224.711 119.674 224.44 119.021 224.721 118.222C225.002 117.424 224.941 116.453 224.585 116.064C224.229 115.677 223.923 115.048 223.905 114.669C223.886 114.289 223.396 113.047 222.814 111.908C222.232 110.769 221.607 108.905 221.423 107.766C221.241 106.626 220.849 105.461 220.554 105.177C220.259 104.892 218.587 101.863 216.84 98.4458C214.985 94.8194 210.071 88.3515 205.039 82.9129C195.317 72.4075 186.198 66.4615 174.109 62.7439C165.887 60.2152 149.725 59.1931 141.953 60.7102ZM146.11 74.0591C131.905 76.5506 120.658 82.7752 110.533 93.7497C98.8173 106.449 93.4329 120.971 93.4329 139.867C93.4329 159.28 98.7395 173.179 111.432 187.009C120.384 196.763 127.73 201.43 139.378 204.766C145.3 206.463 150.368 206.658 188.484 206.658C228.894 206.658 231.239 206.555 236.144 204.553C249.638 199.044 257.72 183.615 255.535 167.533C254.57 160.429 251.872 154.787 246.916 149.503C235.126 136.937 216.802 136.551 204.22 148.604C200.464 152.202 194.386 164.369 195.428 166.207C195.776 166.822 195.438 168.003 194.678 168.833C193.468 170.153 193.226 170.055 192.732 168.048C191.632 163.572 192.26 152.253 193.855 147.812C196.423 140.664 202.363 133.549 208.468 130.311C214.87 126.914 214.988 126.288 211.213 115.847C202.544 91.8805 181.757 75.5814 157.499 73.7329C153.845 73.4544 148.72 73.6014 146.11 74.0591ZM69.0269 128.425C59.6391 131.626 50.9431 139.759 46.2762 149.704C43.8388 154.897 43.6054 156.359 43.6291 166.273C43.6509 175.98 43.9328 177.77 46.2515 182.97C50.2901 192.026 55.5265 197.781 63.7811 202.234L71.022 206.14L91.7064 206.486L112.391 206.833L103.108 196.649C92.89 185.439 87.927 176.569 83.7926 162.131C81.9304 155.626 81.5688 152.134 81.5688 140.643V126.923L77.2977 126.992C74.9486 127.03 71.227 127.675 69.0269 128.425Z" fill="#142959"/>
</svg>
