<svg width="879" height="155" viewBox="0 0 879 155" fill="none" xmlns="http://www.w3.org/2000/svg">
    <path fill-rule="evenodd" clip-rule="evenodd" d="M116.9 0.68582C92.0559 5.12982 70.1229 22.1538 59.7399 45.0528L56.9289 51.2528L49.5789 51.4028C30.8829 51.7848 14.0419 62.4408 5.72294 79.1538C-8.34006 107.411 4.39494 139.778 34.2789 151.728L40.2789 154.127L123.779 154.434C183.663 154.653 208.965 154.415 213.239 153.592C225.749 151.182 238.018 142.442 243.429 132.086C244.997 129.086 246.602 126.631 246.998 126.629C247.393 126.628 247.457 125.952 247.141 125.127C246.824 124.302 247.049 123.627 247.641 123.627C248.232 123.627 248.475 122.998 248.179 122.228C247.884 121.459 248.081 120.558 248.617 120.227C249.153 119.896 249.369 118.776 249.098 117.739C248.827 116.701 249.094 115.55 249.692 115.181C251.059 114.336 251.131 103.962 249.775 103.125C249.223 102.784 249.047 101.407 249.384 100.066C249.781 98.4828 249.569 97.6268 248.78 97.6268C248.111 97.6268 247.824 96.9528 248.141 96.1268C248.457 95.3018 248.232 94.6268 247.641 94.6268C247.049 94.6268 246.824 93.9518 247.141 93.1268C247.457 92.3018 247.367 91.6268 246.94 91.6268C246.513 91.6268 245.324 89.7138 244.298 87.3768C241.758 81.5908 231.491 71.5788 224.716 68.2818C221.656 66.7928 216.256 65.0488 212.716 64.4058C205.898 63.1678 204.489 62.2038 205.369 59.3768C205.675 58.3948 205.399 57.6268 204.739 57.6268C204.093 57.6268 203.807 56.9958 204.103 56.2248C204.399 55.4538 204.335 54.5158 203.96 54.1408C203.585 53.7668 203.263 53.1598 203.244 52.7938C203.224 52.4268 202.707 51.2268 202.094 50.1268C201.481 49.0268 200.822 47.2268 200.629 46.1268C200.437 45.0268 200.024 43.9018 199.713 43.6268C199.402 43.3518 197.641 40.4268 195.8 37.1268C193.846 33.6248 188.668 27.3788 183.366 22.1268C173.123 11.9818 163.516 6.23981 150.779 2.64981C142.116 0.207809 125.088 -0.77918 116.9 0.68582ZM121.279 13.5768C106.313 15.9828 94.4629 21.9938 83.7959 32.5918C71.4519 44.8558 65.7789 58.8788 65.7789 77.1268C65.7789 95.8738 71.3699 109.296 84.7429 122.652C94.1749 132.071 101.914 136.578 114.186 139.8C120.426 141.438 125.766 141.627 165.924 141.627C208.5 141.627 210.971 141.527 216.139 139.594C230.356 134.274 238.871 119.374 236.569 103.844C235.552 96.9838 232.71 91.5348 227.488 86.4328C215.066 74.2978 195.76 73.9248 182.504 85.5638C178.546 89.0388 172.143 100.789 173.24 102.564C173.607 103.157 173.251 104.298 172.45 105.099C171.175 106.374 170.92 106.28 170.4 104.341C169.241 100.019 169.903 89.0878 171.583 84.7998C174.289 77.8968 180.547 71.0258 186.979 67.8988C193.724 64.6188 193.849 64.0138 189.871 53.9308C180.738 30.7868 158.837 15.0468 133.279 13.2618C129.429 12.9928 124.029 13.1348 121.279 13.5768ZM286.995 86.8818C279.688 105.717 273.448 122.139 273.128 123.377C272.561 125.569 272.748 125.627 280.43 125.627H288.313L291.156 117.627L293.998 109.627H308.315H322.631L325.621 117.377L328.61 125.127L336.822 125.42C344.701 125.7 345.012 125.628 344.493 123.642C344.195 122.503 337.752 106.059 330.174 87.0988L316.396 52.6268L308.338 52.6318L300.279 52.6378L286.995 86.8818ZM407.983 59.3768L408.279 66.1268H415.279H422.279L422.575 59.3768L422.87 52.6268H415.279H407.688L407.983 59.3768ZM40.0649 66.0778C30.1739 69.1688 21.0119 77.0228 16.0949 86.6268C13.5269 91.6418 13.2809 93.0528 13.3059 102.627C13.3289 112.001 13.6259 113.73 16.0689 118.751C20.3239 127.497 25.8409 133.054 34.5379 137.355L42.1669 141.127L63.9599 141.461L85.7529 141.796L75.9729 131.961C65.2069 121.136 59.9779 112.57 55.6219 98.6268C53.6599 92.3458 53.2789 88.9728 53.2789 77.8768V64.6268L48.7789 64.6938C46.3039 64.7308 42.3829 65.3528 40.0649 66.0778ZM307.31 73.3338C306.917 74.3198 304.85 79.9648 302.717 85.8768L298.839 96.6268H308.284H317.729L316.665 93.8768C316.079 92.3648 314.053 86.8768 312.163 81.6828C310.272 76.4898 308.568 72.0828 308.376 71.8898C308.183 71.6978 307.704 72.3478 307.31 73.3338ZM360.357 73.0658C349.383 77.1058 345.811 89.8318 353.422 97.7758C356.085 100.556 358.843 101.618 377.279 106.967C380.045 107.769 381.358 108.744 381.535 110.127C381.981 113.617 380.207 114.927 374.383 115.41C368.022 115.937 364.334 114.217 362.719 109.97C361.969 107.996 361.243 107.538 359.514 107.951C358.285 108.244 355.142 108.792 352.529 109.169C346.753 110.002 346.454 111.498 350.848 117.564C354.682 122.856 360.947 125.763 369.902 126.404C386.622 127.6 398.155 118.924 396.477 106.412C395.487 99.0328 390.863 95.9528 373.435 91.0628C368.021 89.5438 363.358 87.6928 363.073 86.9508C360.927 81.3568 376.679 80.4918 380.291 86.0058C381.715 88.1778 382.062 88.2338 387.702 87.2058C390.956 86.6128 393.934 85.8098 394.32 85.4218C395.74 83.9958 389.873 75.8998 386.063 74.0278C381.066 71.5728 365.95 71.0068 360.357 73.0658ZM445.463 73.0758C443.364 73.8238 440.799 75.2038 439.763 76.1408C437.528 78.1638 433.671 85.6428 434.321 86.6938C434.571 87.0988 437.406 87.7348 440.62 88.1088C446.217 88.7578 446.596 88.6558 449.545 85.7068C451.92 83.3318 453.508 82.6268 456.48 82.6268C461.252 82.6268 464.779 84.9628 464.779 88.1248C464.779 91.1838 464.796 91.1748 453.684 93.6358C442.335 96.1498 438.004 98.2328 435.029 102.612C432.208 106.763 432.035 113.771 434.634 118.618C437.154 123.315 443.614 126.633 450.186 126.605C455.18 126.584 462.866 123.913 464.215 121.731C465.337 119.915 466.523 120.471 467.19 123.127C467.785 125.5 468.178 125.627 474.915 125.627C481.809 125.627 481.993 125.563 481.336 123.377C479.982 118.878 478.609 103.992 479.053 98.6268C479.302 95.6018 479.126 89.9768 478.659 86.1268C477.943 80.2048 477.356 78.7128 474.849 76.4388C473.219 74.9598 470.174 73.2748 468.082 72.6938C462.796 71.2258 450.045 71.4408 445.463 73.0758ZM514.809 72.6868C513.45 73.2578 510.863 74.8508 509.059 76.2268L505.779 78.7288V75.6778V72.6268H498.779H491.779V99.1268V125.627H499.279H506.779V109.095C506.779 90.5228 507.663 86.7718 512.651 84.1928C518.344 81.2488 522.874 82.5908 524.674 87.7548C525.316 89.5988 525.779 98.1868 525.779 108.276V125.627H533.411H541.043L540.58 104.377C540.068 80.8848 539.566 78.7478 533.566 74.4758C529.906 71.8688 519.187 70.8468 514.809 72.6868ZM561.873 72.9188C551.377 76.2688 547.362 89.7038 554.561 97.3828C557.508 100.527 561.657 102.258 574.779 105.82C581.84 107.736 583.331 108.492 583.586 110.28C584.012 113.27 580.273 115.627 575.104 115.627C569.503 115.627 566.091 113.954 564.545 110.451C563.524 108.136 562.796 107.675 560.779 108.066C559.404 108.333 556.128 108.846 553.499 109.207C549.211 109.796 548.784 110.083 549.348 111.995C550.431 115.666 555.278 121.025 559.868 123.627C563.76 125.833 565.455 126.127 574.279 126.127C583.103 126.127 584.798 125.833 588.69 123.627C596.181 119.382 599.457 112.585 597.727 104.877C596.537 99.5738 592.179 96.1148 583.576 93.6438C566.555 88.7548 565.294 88.2308 564.964 85.9118C564.733 84.2848 565.263 83.5538 566.964 83.1558C575.14 81.2448 581.326 82.9138 582.904 87.4568C583.258 88.4768 584.825 88.2958 594.436 86.1228C596.061 85.7558 596.457 85.1128 596.041 83.5198C595.1 79.9218 588.554 73.9238 584.279 72.7428C579.297 71.3668 566.417 71.4678 561.873 72.9188ZM407.779 99.1268V125.627H415.279H422.779V99.1268V72.6268H415.279H407.779V99.1268ZM462.279 101.133C461.729 101.325 458.694 102.201 455.535 103.081C448.576 105.017 446.054 107.942 447.882 111.954C449.336 115.146 453.251 116.574 457.466 115.451C462.019 114.239 464.779 110.291 464.779 104.992C464.779 100.801 464.495 100.361 462.279 101.133Z" fill="#142959"/>
    <path fill-rule="evenodd" clip-rule="evenodd" d="M74.7447 22.3768L69.2787 28.1268L75.0287 22.6608C80.3707 17.5828 81.2367 16.6268 80.4947 16.6268C80.3387 16.6268 77.7507 19.2148 74.7447 22.3768ZM184.279 22.6268C187.545 25.9268 190.441 28.6268 190.716 28.6268C190.991 28.6268 188.545 25.9268 185.279 22.6268C182.013 19.3268 179.117 16.6268 178.842 16.6268C178.567 16.6268 181.013 19.3268 184.279 22.6268ZM97.0637 28.6278C93.0967 29.6678 88.9637 30.9928 87.8797 31.5728C84.8217 33.2098 84.3067 32.8308 86.2527 30.3768C87.2347 29.1388 85.3297 30.9458 82.0197 34.3918C71.2887 45.5648 65.7787 60.0618 65.7787 77.1268C65.7787 95.8738 71.3697 109.296 84.7427 122.652C94.1747 132.071 101.914 136.578 114.186 139.8C120.426 141.438 125.766 141.627 165.924 141.627C208.5 141.627 210.971 141.527 216.139 139.594C225.588 136.058 234.33 126.225 236.112 117.127C236.435 115.477 236.447 114.712 236.139 115.428C235.799 116.216 234.783 115.121 233.558 112.646C230.576 106.618 223.492 99.8488 216.999 96.8238C212.556 94.7528 209.382 94.0798 202.779 93.8068C192.083 93.3658 185.099 95.7348 177.827 102.273C175.051 104.77 172.772 106.208 172.764 105.47C172.751 104.352 172.606 104.351 171.902 105.462C169.48 109.284 169.014 92.2268 171.354 85.3608C172.22 82.8178 174.776 78.6398 177.033 76.0758C180.872 71.7138 181.063 71.2168 179.987 68.3658C177.489 61.7488 171.905 54.0888 164.124 46.6058C150.36 33.3698 133.101 26.5668 113.582 26.6818C107.838 26.7158 101.519 27.4608 97.0637 28.6278ZM631.079 53.4888C617.555 58.1618 609.588 69.1588 608.088 85.2228C606.502 102.21 614.197 116.874 628.032 123.224C633.642 125.799 635.35 126.092 644.779 126.101C653.958 126.109 656.07 125.772 661.565 123.424C665.023 121.946 669.648 119.315 671.844 117.576L675.836 114.414L675.557 101.271L675.279 88.1268L659.473 87.8508L643.667 87.5758L643.973 92.3508L644.279 97.1268L654.529 97.4118L664.779 97.6968V104.08C664.779 110.213 664.652 110.541 661.529 112.424C647.231 121.048 628.408 117.218 621.505 104.28C619.62 100.748 619.288 98.5478 619.284 89.5608C619.279 79.7758 619.502 78.5598 622.294 73.0948C626.414 65.0328 632.286 61.3328 641.818 60.7948C652.717 60.1788 659.021 63.2178 662.93 70.9718C664.082 73.2568 665.149 75.2688 665.301 75.4428C666.01 76.2528 673.778 73.4058 673.769 72.3378C673.747 69.5758 668.844 60.8598 665.937 58.4138C658.173 51.8808 642.246 49.6298 631.079 53.4888ZM701.461 72.7448C700.461 73.3268 698.775 75.2258 697.715 76.9648L695.786 80.1268L695.783 76.3768C695.779 72.6688 695.734 72.6268 691.779 72.6268H687.779V99.1268V125.627H692.279H696.779V110.676C696.779 93.4138 697.881 86.8188 701.303 83.6048C703.36 81.6718 704.431 81.4258 708.619 81.9218L713.524 82.5028L715.076 78.5518L716.629 74.6008L713.753 73.1138C710.433 71.3968 704.105 71.2068 701.461 72.7448ZM732.961 73.1458C727.089 75.6968 723.786 78.6848 721.001 83.9648C718.562 88.5908 718.28 90.1658 718.286 99.1268C718.293 108.291 718.537 109.568 721.204 114.394C729.666 129.703 752.368 130.841 762.772 116.478C767.397 110.093 768.592 96.6008 765.386 86.9498C763.328 80.7528 756.872 74.3018 751.134 72.7078C745.763 71.2168 736.912 71.4308 732.961 73.1458ZM848.279 73.1628C846.629 74.0008 844.491 75.6228 843.529 76.7678C841.791 78.8338 841.779 78.8258 841.779 75.7378C841.779 72.7178 841.648 72.6268 837.279 72.6268H832.779V109.127V145.627H837.779H842.779V133.655V121.683L847.428 124.155C859.28 130.457 873.441 123.346 877.588 109.011C880.558 98.7448 877.73 83.2748 871.892 77.8488C865.437 71.8508 854.957 69.7708 848.279 73.1628ZM776.958 93.8768C777.328 118.401 777.904 120.393 785.764 124.377C793.135 128.113 804.31 126.536 808.779 121.129C810.192 119.419 810.308 119.483 810.784 122.221C811.237 124.829 811.724 125.159 815.534 125.434L819.779 125.742V99.1838V72.6268H815.279H810.779L810.706 86.3768C810.581 109.971 808.994 114.964 800.872 117.315C795.493 118.872 789.909 117.263 788.072 113.627C787.186 111.875 786.804 105.371 786.794 91.8768L786.779 72.6268H781.708H776.637L776.958 93.8768ZM852.987 79.3638C849.016 80.0798 844.142 85.9448 842.772 91.6568C838.475 109.569 849.902 124.343 861.881 116.364C866.983 112.965 868.937 108.089 868.937 98.7488C868.937 85.0428 862.807 77.5928 852.987 79.3638ZM735.078 81.5868C729.855 84.7708 728.287 88.8178 728.283 99.1268C728.28 106.104 728.691 108.801 730.113 111.127C732.839 115.584 736.531 117.898 741.681 118.378C747.453 118.914 752.383 115.912 755.25 110.114C758.053 104.445 758.033 92.4578 755.212 87.6278C750.828 80.1228 741.881 77.4378 735.078 81.5868ZM41.1897 83.1108C32.9687 84.8998 23.5797 89.7978 17.5287 95.4548L12.5327 100.127L13.0917 106.803C14.2077 120.138 21.9087 131.11 34.5377 137.355L42.1667 141.127L63.9597 141.461L85.7527 141.796L75.9727 131.961C68.3967 124.344 65.2667 120.324 62.0857 114.127C57.3817 104.965 54.2927 95.5858 53.2627 87.3408C52.4417 80.7758 52.2417 80.7058 41.1897 83.1108Z" fill="#2AB7EE"/>
</svg>
